<svg xmlns="http://www.w3.org/2000/svg" height="20px" viewBox="0 -960 960 960" width="20px" fill="#FFFFFF"><path d="M512-277.5q13-13.5 13-32.5t-13-31.5Q499-354 480-354t-32.5 12.5Q434-329 434-310t13.5 32.5Q461-264 480-264t32-13.5ZM447-401h66q0-35 6-48.5t31-36.5q22-21 37.5-43.5T603-584q0-52-36-82t-87-30q-48 0-80 27t-44 63l59 25q6-18 21-36t44-18q31 0 45 16t14 36q0 21-15 38t-32 34q-31 30-38 48.5t-7 61.5ZM216-144q-30 0-51-21t-21-51v-528q0-30 21-51t51-21h528q30 0 51 21t21 51v528q0 30-21 51t-51 21H216Z"/></svg>