<svg xmlns="http://www.w3.org/2000/svg" height="20px" viewBox="0 -960 960 960" width="20px" fill="#FFFFFF"><path d="M528-432h216v-72H528v72Zm0-120h216v-72H528v72ZM192-336h288v-45q0-29-44-52t-100.5-23q-56.5 0-100 22.5T192-381v45Zm195-165.21q21-21.21 21-51T386.79-603q-21.21-21-51-21T285-602.79q-21 21.21-21 51T285.21-501q21.21 21 51 21T387-501.21ZM168-192q-29.7 0-50.85-21.16Q96-234.32 96-264.04v-432.24Q96-726 117.15-747T168-768h624q29.7 0 50.85 21.16Q864-725.68 864-695.96v432.24Q864-234 842.85-213T792-192H168Zm0-72h624v-432H168v432Zm0 0v-432 432Z"/></svg>